<?xml version="1.0" encoding="utf-8"?>
<!-- Generator: Adobe Illustrator 25.0.1, SVG Export Plug-In . SVG Version: 6.00 Build 0)  -->
<svg version="1.1" id="Capa_1" xmlns="http://www.w3.org/2000/svg" xmlns:xlink="http://www.w3.org/1999/xlink" x="0px" y="0px"
	 viewBox="0 0 80 80" style="enable-background:new 0 0 80 80;" xml:space="preserve">
<style type="text/css">
	.st0{fill:#FFFFFF;}
</style>
<g>
	<g>
		<path class="st0" d="M40,0.7C18.3,0.7,0.7,18.3,0.7,40S18.3,79.3,40,79.3c21.7,0,39.3-17.6,39.3-39.3S61.7,0.7,40,0.7z M40,72.2
			C22.2,72.2,7.8,57.8,7.8,40S22.2,7.8,40,7.8S72.2,22.2,72.2,40C72.2,57.8,57.8,72.2,40,72.2z"/>
	</g>
</g>
<g>
	<g>
		<path class="st0" d="M54.6,41.2H40.2v-20c0-1.8-1.5-3.3-3.3-3.3c-1.8,0-3.3,1.5-3.3,3.3v23.3c0,1.8,1.5,3.3,3.3,3.3h17.8
			c1.8,0,3.3-1.5,3.3-3.3S56.5,41.2,54.6,41.2z"/>
	</g>
</g>
</svg>
