<?xml version="1.0" encoding="utf-8"?>
<!-- Generator: Adobe Illustrator 25.0.1, SVG Export Plug-In . SVG Version: 6.00 Build 0)  -->
<svg version="1.1" id="Capa_1" xmlns="http://www.w3.org/2000/svg" xmlns:xlink="http://www.w3.org/1999/xlink" x="0px" y="0px"
	 viewBox="0 0 80 80" style="enable-background:new 0 0 80 80;" xml:space="preserve">
<style type="text/css">
	.st0{fill:#FFFFFF;}
</style>
<g>
	<g>
		<g>
			<path class="st0" d="M54,26c-3.6-3.6-8.6-5.9-14-5.9S29.5,22.3,26,26c-3.6,3.6-5.9,8.6-5.9,14s2.3,10.5,5.9,14
				c3.6,3.6,8.6,5.9,14,5.9s10.5-2.2,14-5.9c3.6-3.6,5.9-8.6,5.9-14S57.7,29.5,54,26z"/>
			<path class="st0" d="M40,13.9c1.5,0,2.7-1.3,2.7-2.7V3.1c0-1.5-1.3-2.7-2.7-2.7c-1.5,0-2.7,1.3-2.7,2.7v8.1
				C37.3,12.6,38.5,13.9,40,13.9z"/>
			<path class="st0" d="M62.3,21.6l5.8-5.8c1-1,1-2.7,0-3.8s-2.7-1-3.8,0l-5.8,5.8c-1,1-1,2.7,0,3.8C59.5,22.6,61.2,22.6,62.3,21.6z
				"/>
			<path class="st0" d="M76.9,37.3h-8.1c-1.5,0-2.7,1.3-2.7,2.7c0,1.5,1.3,2.7,2.7,2.7h8.1c1.5,0,2.7-1.3,2.7-2.7
				S78.4,37.3,76.9,37.3z"/>
			<path class="st0" d="M62.2,58.4c-1-1-2.7-1-3.8,0s-1,2.7,0,3.8l5.8,5.8c1,1,2.7,1,3.8,0s1-2.7,0-3.8L62.2,58.4z"/>
			<path class="st0" d="M40,66.1c-1.5,0-2.7,1.3-2.7,2.7v8.1c0,1.5,1.3,2.7,2.7,2.7c1.5,0,2.7-1.3,2.7-2.7v-8.1
				C42.7,67.4,41.5,66.1,40,66.1z"/>
			<path class="st0" d="M17.7,58.4l-5.8,5.8c-1,1-1,2.7,0,3.8s2.7,1,3.8,0l5.8-5.8c1-1,1-2.7,0-3.8C20.5,57.4,18.8,57.4,17.7,58.4z"
				/>
			<path class="st0" d="M13.9,40c0-1.5-1.3-2.7-2.7-2.7H3.1c-1.5,0-2.7,1.3-2.7,2.7s1.3,2.7,2.7,2.7h8.1
				C12.6,42.7,13.9,41.5,13.9,40z"/>
			<path class="st0" d="M17.7,21.6c1,1,2.7,1,3.8,0c1-1,1-2.7,0-3.8L15.7,12c-1-1-2.7-1-3.8,0s-1,2.7,0,3.8L17.7,21.6z"/>
		</g>
	</g>
</g>
</svg>
